<svg version="1.2" xmlns="http://www.w3.org/2000/svg" viewBox="0 0 1494 776" width="1494" height="776">
	<title>ceres-logo-1-svg</title>
	<defs>
		<linearGradient id="g1" x1="0" y1="383.2" x2="3433.6" y2="383.2" gradientUnits="userSpaceOnUse">
			<stop offset="0" stop-color="#e45f13"/>
			<stop offset=".5" stop-color="#ed8100"/>
			<stop offset="1" stop-color="#fea300"/>
		</linearGradient>
	</defs>
	<style>
		.s0 { fill: url(#g1) } 
	</style>
	<path id="Layer" fill-rule="evenodd" class="s0" d="m553.3 550.4l115.3 99.8c-17.6 19.6-37.2 37.3-58.6 52.8-21.3 15.5-44.2 28.8-68.2 39.5-24.1 10.8-49.2 19-75 24.5-25.8 5.5-52 8.3-78.4 8.4-208.3 1.4-387-173.1-388.4-381.3-1.3-208.3 175.1-383.7 386.2-385.1 25.6-0.2 51.2 2.3 76.3 7.4 25.1 5 49.7 12.7 73.2 22.7 23.6 10.1 46.1 22.5 67.1 37.1 21.1 14.6 40.6 31.4 58.2 50l12 14.2-71.3 122.5q-5.7-6.6-11.7-12.9-6-6.2-12.3-12.2-6.3-6-12.8-11.7-6.6-5.7-13.4-11c-11.8-9.2-24.2-17.5-37.3-24.7-13.1-7.1-26.7-13.3-40.8-18.2-14-5-28.4-8.9-43.1-11.5-14.7-2.7-29.6-4.1-44.5-4.4-118.8 0.8-217.4 109.1-216.6 236.6 0.9 128.9 100.8 235.9 219.7 235.1 15.6-0.3 31.1-2.3 46.4-5.8 15.2-3.6 30-8.7 44.1-15.4 14.1-6.7 27.5-14.8 39.9-24.3 12.5-9.5 23.8-20.2 34-32.1zm2880.3-25.8c1 140.2-113.1 231.6-282.2 232.8-28.4 0-56.8-2.3-84.8-6.9-28.1-4.6-55.7-11.6-82.6-20.8-26.9-9.2-53-20.6-78-34.1-25-13.5-48.8-29.1-71.3-46.6l76.1-120.9c17.3 13.2 35.6 25 54.8 35.2 19.2 10.2 39.2 18.9 59.7 26 20.6 7.1 41.7 12.5 63.1 16.2 21.4 3.7 43.1 5.7 64.8 5.9 68.5-0.6 115.9-30.5 115.6-75.9-0.4-56.6-63.4-74.6-146.1-96.7-156.8-40.1-256.4-84.7-258.7-215.1-0.9-137.4 110.4-231.6 271.2-232.7 24.5 0.3 49 2.4 73.3 6.2 24.2 3.8 48.2 9.4 71.6 16.6 23.5 7.3 46.4 16.3 68.5 26.8 22.2 10.6 43.6 22.7 64 36.4l-70.6 126.5c-15.2-10-31.1-19-47.6-26.9-16.4-7.8-33.4-14.5-50.8-20-17.4-5.5-35.2-9.8-53.1-12.9-18-3-36.2-4.8-54.4-5.4-60.2 0.4-106.2 24.8-105.9 65.9 0.3 46.8 38.2 60.7 148.8 92.6 122 33.2 253.6 74.8 254.6 227.8zm-1124-217.9l288.1-1.9c-20.2-92-82.1-156.8-184.2-156.1-95 0.7-171.5 62.1-196.1 158.6 0 0-7.4 29-9.4 45.7 0 0.4-0.7 8.6-0.7 9-1.2 67.1 14.6 97.9 15.3 98.8 27.4 88.7 99.5 149 195.3 148.4v-0.1c67.1-0.5 146.7-32.2 186.9-75l108.4 112.6c-62.5 68.4-188 114.6-292.9 115.3-206.9 1.5-378.5-157.4-380-382.7-1.4-219.6 159.7-382.1 365.3-383.5 223.7-1.5 354.8 169 356.6 439.6l-380.9 2.5zm-995.8 238.8l108.4 111.2c-62.5 67.5-188 113.1-292.9 113.8-26.5 0-53-2.7-78.9-7.9-26-5.3-51.4-13.2-75.8-23.5-24.5-10.4-47.8-23.2-69.6-38.2-21.9-15-42.2-32.1-60.7-51.2q-0.4-0.4-0.8-0.9-0.5-0.4-0.9-0.8-0.4-0.5-0.9-0.9-0.4-0.4-0.9-0.8c-0.6-0.8-1.4-1.9-2.6-3.5 33.8-32.1 92.1-119.6 92.1-119.6 0 0 17 19.7 28.6 30.5 11.1 10.7 23.2 20.4 36.2 28.8 13 8.3 26.8 15.4 41.2 21 14.4 5.7 29.3 9.9 44.5 12.6 15.2 2.6 30.7 3.8 46.2 3.4 67.1 0.5 146.7-31.7 186.8-74zm179.9-168q0 7.5-0.3 15.1-0.2 7.5-0.8 15-0.6 7.5-1.5 15-0.8 7.5-2 15h-0.4v0.2l-402.6 1.7-65.9-127.7 300.1-1.9c-27.6-94.5-108.8-164.1-202.1-163.5-14.9-0.4-29.9 0.9-44.6 3.9-14.6 2.9-28.9 7.4-42.6 13.5-13.7 6-26.7 13.6-38.7 22.4-12.1 8.9-23.1 19.1-32.9 30.4-98.4 92.5-92 195.8-210.6 327.9-27.6-23.9-113.7-88.7-112.6-90.1 125.3-177.2 126.2-246.8 224-350.8 47.6-50.6 147.8-102 258.5-102.8 201.1-1.3 373.6 171 375 376.7z"/>
</svg>